<?xml version="1.0" encoding="utf-8"?>
<!-- Generator: Adobe Illustrator 23.1.0, SVG Export Plug-In . SVG Version: 6.00 Build 0)  -->
<svg version="1.1" id="Layer_1" xmlns="http://www.w3.org/2000/svg" xmlns:xlink="http://www.w3.org/1999/xlink" x="0px" y="0px"
	 viewBox="0 0 1920 1080" style="enable-background:new 0 0 1920 1080;" xml:space="preserve">
<style type="text/css">
	.st0{fill:#C9C9C9;}
	.st1{display:none;}
	.st2{display:inline;enable-background:new    ;}
	.st3{display:inline;}
</style>
<g>
	<g>
		<path class="st0" d="M1242.3,516.8c-0.1-71.4-0.1-142.9-0.2-214.3c0-6,0-12.1,0-19.3c-93.6,0-185.9,0-279.2,0
			c0,29.8,0,59.6,0,90.9c62,0,123.4,0,186.7,0c0,14.9,0.5,28.4-0.4,41.8c-0.2,2.7-5.8,7.2-9,7.2c-56.9,0.4-113.8,0.5-170.7-0.1
			c-3.4,0-9.1-6-9.5-9.7c-1.2-11.6-0.5-23.3-0.5-37.2c-6.2,0-11.2,0-16.1,0c-37.1,0-74.3-0.3-111.4,0.2
			c-10.4,0.1-14.5-3.2-13.8-13.7c0.7-10.7,0.2-21.4,0.2-32.4c-15.3,0-29.2,0-44.8,0c0,11.7-0.4,22.4,0.1,33.1
			c0.4,9.7-3.3,13.2-13.2,13c-21.6-0.6-43.3-0.2-64.9-0.1c-5,0-10.1,0.4-16,0.7c0,61.5,0,121.9,0,184.5c12,0,23.1,0.4,34.2-0.1
			c9-0.4,12.4,2.9,12.3,12.2c-0.5,26.7-0.2,53.4-0.2,81.8c10.8,0,20.1,0.7,29.3-0.2c13.8-1.3,18.9,3.3,18.7,18
			c-0.9,45.6-0.3,91.2-0.3,136.8c0,83.7,0,167.4,0,251.1c0,6-0.5,12-0.9,18.9c-15.8,0-30.6,0-47.3,0c0-140.2,0-280.4,0-421.7
			c-16.3,0-30.7,0-46.7,0c0-31.3,0-61.6,0-93.5c-16.3,0-31,0-46.9,0c0-157.5,0-313.3,0-471.2c15.1,0,30.3,0,45.6,0
			c0.4,5.6,1.1,11.2,1.1,16.8c0.1,66.8,0.1,133.5,0.1,200.3c0,5,0,10,0,15.5c31.5,0,61.3,0,91.1,0c0-77.8,0-154.6,0-232.2
			c-31.7,0-62.2,0-92.7,0c0-15.4,0-30.8,0-47.7c48.4,0,94.7,0,142.4,0c0-15.8,0-30.2,0-45.7c31.7,0,61.9,0,94.1,0
			c0,14.4,0,29.1,0,44.6c16.3,0,30.7,0,47,0c0-14.7,0-29.4,0-45c32.3,0,62.6,0,94.3,0c0,15,0,29.4,0,44.8c16.1,0,30.8,0,47,0
			c0-14.7,0-29.1,0-44.5c31.7,0,62,0,93.7,0c0,14.4,0,28.8,0,45c16,0,30.8,0,46.9,0c0,79.2,0,156.5,0,235.5c16.3,0,31.1,0,46.8,0
			c0,79,0,156.4,0,235.8c-15.6,0-31.4,0-47.1,0L1242.3,516.8z M911.5,326.1c0-93.1,0-185.4,0-279.6c-25,0-49.8,0.8-74.5-0.3
			c-13.4-0.6-16.5,4.2-16.4,16.8c0.5,82.2,0.2,164.4,0.3,246.6c0,5.4,0.7,10.9,1.1,16.6C852.3,326.1,881.2,326.1,911.5,326.1z
			 M1192.3,231.6c0.8-1.7,1.5-2.5,1.5-3.4c0.5-57.2,0.8-114.5,1.4-171.7c0.1-8.4-4.2-10.2-11.4-10.1c-22.1,0.2-44.1,0.7-66.2-0.2
			c-12.2-0.5-14.9,4.2-14.8,15.4c0.6,38,0.3,76,0.3,114.1c0,18.6,0,37.2,0,55.8C1134.9,231.6,1163.8,231.6,1192.3,231.6z
			 M1054,231.7c0-59.8-0.1-117.9,0.1-176.1c0-9.1-5.7-9.2-12.2-9.2c-21.6,0.1-43.2,0.6-64.7-0.2c-11.4-0.4-15.6,2.9-15.4,14.9
			c0.7,38.5,0.3,76.9,0.3,115.4c0,18.1,0,36.3,0,55.1C993.5,231.7,1022.4,231.7,1054,231.7z"/>
		<path class="st0" d="M1242.1,516.5c0,30.9,0,61.7,0,94c-15.2,0-29.6,0-45.7,0c0,16.2,0,31,0,46.8c-16.2,0-30.6,0-46.8,0
			c0,141.3,0,281.6,0,422.7c-16.6,0-31.4,0-48.1,0c-0.3-4.8-0.9-9.7-0.9-14.6c-0.1-131.7,0.1-263.3-0.3-395c0-12,4.1-15.2,15.3-15.4
			c31.7-0.4,32.2-0.8,32.1-32.6c0-11.7,4.4-14.6,14.9-13.8c9.7,0.7,19.5,0.2,32.5,0.2c0-25,0-48.8,0-72.6c0-21.9,0-22.1,22.3-21.8
			c8.3,0.1,16.6,1.6,24.9,2.4C1242.3,516.8,1242.1,516.5,1242.1,516.5z"/>
	</g>
</g>
<g id="Layer_5" class="st1">
	<g class="st2">
		<path class="st0" d="M729.2,771.6V617.4h308.4V463.1h154.2V308.9H729.2v154.2H420.7V154.7H575V0.5H1346v154.2h154.2v308.4H1346
			v154.2h-154.2v154.2H729.2z M729.2,1080V925.8h462.6V1080H729.2z"/>
	</g>
</g>
<g id="Layer_4" class="st1">
	<g class="st3">
		<path class="st0" d="M1164.7,633.4c-0.1-57-0.1-114.1-0.2-171.1c0-4.4,0-8.8,0-14.1c-74.2,0-147.4,0-222,0
			c0,22.3-0.3,44.6,0.4,66.8c0.1,1.9,6.4,5.2,9.8,5.2c33.6,0.4,67.1,0.2,100.7,0.2c12.2,0,24.4,0,37.8,0c0,11.8-0.1,22.1,0,32.4
			c0.1,7.7-5.6,6.6-10.2,6.6c-25,0.1-50,0-74.9,0.1c-18.3,0-36.5-0.3-54.8,0.1c-8.2,0.2-11.5-2.6-10.9-11s0.1-16.9,0.1-26.7
			c-17.7,0-34,0-50.3,0c-17.2,0-34.3-0.3-51.5,0.2c-7.9,0.2-10.7-2.7-10.3-10.4c0.5-8.5,0.1-17,0.1-26.4c-11.8,0-22.7,0-35,0
			c0,9.4-0.3,18.3,0.1,27.1c0.3,7.3-2.6,9.8-9.8,9.7c-20.8-0.3-41.7-0.1-65.2-0.1c0,14.7-0.1,28.7,0,42.7
			c0.2,31.3,0.6,62.6,0.4,93.9c0,7.6,2.3,10.3,10.2,10.4c26.4,0.3,26.4,0.6,26.4,27.3c0,12.3,0.6,24.6,0.1,36.9
			c-0.3,8.1,3,10.1,10.5,10.2c27.3,0.6,27.3,0.8,27.3,28c0,97.7,0,195.4,0,293.1c0,4.8,0,9.6,0,15.4c-12.9,0-24.9,0-38,0
			c0-110.9,0-221.9,0-334.1c-12.7,0-24.5,0-37.5,0c0-25.3,0-49.3,0-74.5c-12.7,0-24,0-36.3,0c0-124.7,0-248.3,0-373.4
			c11.2,0,22.9,0,35.9,0c0-13.1,0-24.8,0-37.7c37.7,0,74,0,111.9,0c0-12.8,0-24.5,0-37.2c12.9,0,24.4,0,37.6,0
			c0-37.7,0-74.5,0-111.2l-0.3,0.2c9.3-0.3,18.6-0.2,27.8-1c8.6-0.8,10.7,2.9,10.6,10.9c-0.4,29.5-0.2,58.9-0.1,88.4
			c0,3.9,0.4,7.9,0.7,12.6c8.2,0,15.3,0.7,22.2-0.2c11.2-1.4,14.7,2.4,14.5,14c-0.7,41-0.3,82-0.3,123.1c0,15.6,0,31.1,0,47.2
			c5.2,0.4,8.4,0.8,11.7,0.8c52.9,0.1,105.9-0.2,158.8,0.3c10.7,0.1,14.1-3.2,14-14c-0.4-41,0.4-82,0.2-123c0-8.8,2.9-12,11.6-11.4
			c8.3,0.6,16.7,0.1,25.8,0.1c0-22.9,0.2-43.8-0.1-64.6c-0.1-7,1.7-10.4,9.3-9.9c9.7,0.6,19.4,0.4,29.1,0.5l-0.2-0.3
			c0,24.6,0,49.1,0,75c-12.5,0-24.3,0-36.7,0c0,62.3,0,123.3,0,185.6c11.9,0,23.7,0,36.1,0c0,62.7,0,124,0,187
			c-12.4,0-24.9,0-37.3,0L1164.7,633.4z M831.2,482.7c21.7,0,41.8-0.3,61.8,0.2c8.1,0.2,10.1-3,10.1-10.4c-0.2-22,0.3-43.9,0.3-65.9
			c0.1-45.4,0.2-90.8-0.2-136.2c0-3.2-3.7-9.2-5.9-9.3c-21.8-0.7-43.7-0.4-66.2-0.4C831.2,335.2,831.2,408.4,831.2,482.7z
			 M719.2,482.1c24.7,0,48,0,71.4,0c0-61.6,0-122.4,0-183.3c-24.3,0-47.5,0-71.4,0C719.2,360.2,719.2,420.8,719.2,482.1z"/>
		<path class="st0" d="M978.8,112c11.8,0,23.7,0,37.2,0c0,36.5,0,73.1,0,110.3c13,0,24.4,0,37.1,0c0-24.4,0-48.5,0-73.8
			c12.9,0,24.6,0,37.3,0c0-37.7,0-74,0-111.7c12.7,0,24.5,0,37.7,0c0-12.9,0-24.6,0-36.9c25.2,0,48.9,0,74.1,0c0,11.6,0,23.3,0,36.2
			c13.1,0,24.8,0,37.1,0c0,50.3,0,99.3,0,149.4c-12.5,0-24.6,0-36.7,0l0.2,0.3c0-49,0-98,0-146.9c-26,0-49.6,0-73.9,0
			c0,33.7-0.3,66.5,0.2,99.2c0.2,9.6-3.1,12.5-12.2,11.8c-8-0.6-16.2-0.1-25.6-0.1c0,37.7,0,74,0,111.8c-9.4,0-17.6,0.5-25.6-0.1
			c-8.6-0.6-11.9,2.2-11.6,11.2c0.6,17.9,0.4,35.8-0.1,53.6c-0.1,3-3.3,8.4-5.4,8.6c-10.5,0.9-21.2,0.4-33.6,0.4
			c0-37.9,0-74.1,0-111.7c-13.1,0-24.4,0-35.9,0c0-38.2,0-75,0-111.8L978.8,112z"/>
		<path class="st0" d="M1164.5,633.2c0,24.5,0,48.9,0,74.6c-12.1,0-23.5,0-36.3,0c0,12.9,0,24.6,0,37.1c-12.8,0-24.3,0-37.1,0
			c0,112,0,223.2,0,335.1c-13.1,0-24.9,0-38.1,0c-0.2-3.7-0.7-7.6-0.7-11.5c0-104,0.1-208-0.2-311.9c0-10.3,3-13.6,13.2-13.5
			c24.4,0.1,24.9-0.3,24.4-24.5c-0.2-10.2,3.4-13.1,12.9-12.2c7.3,0.7,14.8,0.1,24.7,0.1c0-19.1-0.1-37.2,0-55.3
			c0.2-21.7-2.6-19.5,19.9-19.5c5.8,0,11.7,1.2,17.5,1.8C1164.7,633.4,1164.5,633.2,1164.5,633.2z"/>
		<path class="st0" d="M867.1,111.9c-11.9,0-23.8,0-36.6,0c0-25.1,0-49.4,0-75.1c11.7,0,23.4,0,36.1,0c0-12.7,0-24.1,0-36.4
			c25,0,48.9,0,74.4,0c0,11.3,0,22.9,0,35.9c13.2,0,24.9,0,37.8,0c0,26.1,0,51,0,75.8l0.2-0.2c-12.5,0-24.9,0-38.5,0
			c0-25.2,0-48.8,0-72.9c-24.8,0-48.3,0-73.6,0c0,25,0,49.1,0,73.2L867.1,111.9z"/>
	</g>
</g>
<g id="Layer_3" class="st1">
	<g class="st3">
		<path class="st0" d="M844.5,77.1c0.2,8.5,0.7,16.9,0.7,25.4c0.1,76.1,0,152.1,0,228.2c0,4.9,0,9.8,0,16.1c-12.1,0-22.7,0-33.4,0
			c-8.1,0-6.6-6-6.6-10.8c-0.1-27.8,0-55.6,0-83.4c0-32,0-64,0-97c-25.3,0-49.7,0-75,0c0,165.8,0,331.1,0,498.3
			c9.4,0,18.2,0.4,26.9-0.1c8.5-0.5,11.6,2.4,11.4,11.2c-0.5,21.2-0.2,42.4-0.2,66c8.2,0,15.3,0,22.5,0c16.7,0,16.8,0.1,16.8,16.4
			c0,72.2,0,144.4,0,216.6c0,34,0,68,0,101.9c0,4.5-0.6,9-0.9,14c-13.2,0-25.4,0-38.7,0c0-115.4,0-230.3,0-346.5
			c-13.2,0-25.3,0-38.7,0c0-26.2,0-51,0-77.3c-13.3,0-25.4,0-38.3,0c0-168,0-334.6,0-502.5c12.4,0,24.6,0,38,0c0-13.4,0-25.6,0-39
			c26.2,0,51.1,0,77.1,0c0-13.1,0-24.9,0-37.4c13.7,0,26.3,0,38.8,0L844.5,77.1z"/>
		<path class="st0" d="M960.6,501.2c-40,3.8-40,3.8-40-35.9c0-21.6,0-43.2,0-64.9c0-16.6,0-16.6,16.3-16.6c67.2,0,134.3,0,201.5,0
			c4.2,0,8.4,0,13.4,0c0-102.3,0-203.6,0-305.5c-24.7,0-48.9,0-74.4,0c0,89.1,0,178.1,0,268.2c-13.8,0-26.3,0-40.4,0
			c0-103.1,0-206,0-308.9l-0.2,0.3c38.2,0,76.4,0,115.9,0c0,12.5,0,24.6,0,38.1c13.5,0,25.7,0,38,0c0.7,2.7,1.3,4.1,1.3,5.5
			c0,114.6-0.1,229.3-0.2,343.9l0.3-0.3c-66.8-0.2-133.6-0.4-200.4-0.5c-9.6,0-19.2,0-31.3,0c0,26.3,0,51.6,0,76.9L960.6,501.2z"/>
		<path class="st0" d="M1191.8,425.4c12.5-0.8,25.1-1.5,38.4-2.3c0,65.3,0,128.8,0,193.7c-12.2,0-24.3,0-37.7,0
			c0,26.2,0,51.1,0,77.4c-13.4,0-25.5,0-39,0c0,13.5,0,25.6,0,38.8c-13.2,0-25,0-38,0c0,116,0,230.8,0,346.6c-13.6,0-26,0-39.4,0
			c-0.2-4.3-0.5-8.5-0.5-12.6c0-107.7,0.2-215.5-0.3-323.2c0-10.8,3.9-13.4,13.4-12.8c7.6,0.5,15.3,0.1,24.9,0.1
			c0-9.9,0.2-19-0.1-28.1c-0.2-7.2,2.2-10.7,10.1-10.2c8.8,0.6,17.7,0.1,29.1,0.1c0-14.6,0-28.7,0-42.7c0-7.7,0.6-15.5-0.1-23.2
			c-0.9-9.6,3.5-11.7,12.1-11.9c26.6-0.4,26.6-0.7,26.7-27.9c0.2-54.1,0.5-108.1,0.8-162.1C1192.1,425.1,1191.8,425.4,1191.8,425.4z
			"/>
		<path class="st0" d="M844.7,77.4c0-12.6,0-25.3,0-39.5c39.1,0,77.4,0,115.8,0l-0.2-0.3c0.3,2.7,0.8,5.3,0.8,8
			c0,97.2,0,194.5,0,291.7c0,2.7-0.3,5.3-0.5,9.2c-12.7,0-25.1,0-38.9,0c0-89.1,0-178,0-269.4c-26.6,0-51.9,0-77.2,0
			C844.5,77.1,844.7,77.4,844.7,77.4z"/>
		<path class="st0" d="M960.4,501.5c9.2-0.4,18.4-1.1,27.6-1.1c37.8-0.1,75.6,0,113.5,0c4.2,0,8.3,0,14.2,0
			c0,12.2,0.4,23.3-0.4,34.3c-0.2,2.2-4.9,5.9-7.6,5.9c-46.7,0.4-93.4,0.4-140.1-0.1c-2.7,0-7.5-4.4-7.6-7
			c-0.6-10.7,0.2-21.5,0.6-32.3C960.6,501.2,960.4,501.5,960.4,501.5z"/>
		<path class="st0" d="M960.5,37.8c0-12.3,0-24.5,0-37.8c25.6,0,50.6,0,76.3,0c0,12.8,0,25.4,0,37.9l0.2-0.3
			c-25.6,0-51.2-0.1-76.7-0.1C960.3,37.5,960.5,37.8,960.5,37.8z"/>
	</g>
</g>
</svg>
